<svg width="19" height="14" viewBox="0 0 19 14" fill="none" xmlns="http://www.w3.org/2000/svg">
    <path d="M9.59586 0.347656C9.59586 0.347656 3.73821 0.347662 2.26801 0.733262C1.48082 0.955271 0.832631 1.60954 0.61268 2.41579C0.230661 3.89975 0.230652 6.97292 0.230652 6.97292C0.230652 6.97292 0.230661 10.0578 0.61268 11.5184C0.832631 12.3246 1.46925 12.9672 2.26801 13.1892C3.74978 13.5865 9.59586 13.5865 9.59586 13.5865C9.59586 13.5865 15.4651 13.5865 16.9353 13.2009C17.7341 12.9789 18.3707 12.348 18.579 11.53C18.9726 10.0578 18.9727 6.98461 18.9727 6.98461C18.9727 6.98461 18.9842 3.89975 18.579 2.41579C18.3707 1.60954 17.7341 0.966971 16.9353 0.756643C15.4651 0.347675 9.59586 0.347656 9.59586 0.347656ZM7.73205 4.13357L12.6058 6.97292L7.73205 9.80058V4.13357Z" fill="white"/>
</svg>