<svg width="18" height="18" viewBox="0 0 18 18" fill="none" xmlns="http://www.w3.org/2000/svg">
    <g clip-path="url(#clip0_304_21)">
        <path d="M9.195 9.66733C11.7157 9.66733 13.7591 7.60532 13.7591 5.06168C13.7591 2.51803 11.7157 0.456055 9.195 0.456055C6.6743 0.456055 4.63092 2.51807 4.63092 5.06171C4.63401 7.60403 6.67562 9.66421 9.195 9.66733ZM9.195 2.58174C10.5523 2.58174 11.6526 3.69204 11.6526 5.06171C11.6526 6.43138 10.5523 7.54168 9.195 7.54168C7.83769 7.54168 6.7374 6.43138 6.7374 5.06171C6.7374 3.69204 7.83772 2.58174 9.195 2.58174Z" fill="white"/>
        <path d="M13.6657 11.8494C14.1617 11.5198 14.4606 10.9608 14.4613 10.3615C14.4682 9.86405 14.19 9.40729 13.7472 9.18878C13.2922 8.95944 12.7475 9.01108 12.3428 9.322C10.4673 10.7018 7.92345 10.7018 6.0479 9.322C5.64259 9.01271 5.09888 8.96113 4.64355 9.18878C4.20088 9.40726 3.92259 9.86352 3.92875 10.3607C3.9298 10.96 4.22857 11.5188 4.72432 11.8487C5.36035 12.2755 6.053 12.6095 6.78169 12.8407C6.90528 12.8794 7.03282 12.9153 7.16438 12.9484L5.04244 15.0422C4.48579 15.5872 4.47233 16.4844 5.01242 17.0461C5.55251 17.6078 6.44155 17.6214 6.99823 17.0764C7.00981 17.065 7.0212 17.0535 7.03239 17.0417L9.19509 14.7828L11.362 17.046C11.9016 17.6081 12.7907 17.6224 13.3478 17.0779C13.9048 16.5333 13.919 15.6362 13.3794 15.074C13.3681 15.0623 13.3566 15.0507 13.3449 15.0394L11.2265 12.9477C11.358 12.9137 11.486 12.8775 11.6105 12.8393C12.3384 12.609 13.0304 12.2757 13.6657 11.8494Z" fill="white"/>
    </g>
    <defs>
        <clipPath id="clip0_304_21">
            <rect width="16.8678" height="17.0214" fill="white" transform="translate(0.761108 0.456055)"/>
        </clipPath>
    </defs>
</svg>