<svg width="18" height="18" viewBox="0 0 18 18" fill="none" xmlns="http://www.w3.org/2000/svg">
    <g clip-path="url(#clip0_304_15)">
        <path d="M17.816 5.46038C17.7765 4.55597 17.6316 3.9342 17.424 3.39542C17.2098 2.82352 16.8803 2.31151 16.4485 1.88586C16.0267 1.4536 15.516 1.1177 14.9558 0.904948C14.4188 0.695438 13.8059 0.549184 12.9096 0.509309C12.0067 0.466056 11.72 0.456055 9.42989 0.456055C7.13976 0.456055 6.85311 0.466056 5.95351 0.505932C5.05726 0.545807 4.44109 0.692191 3.90731 0.901571C3.34044 1.1177 2.83304 1.45022 2.41123 1.88586C1.98287 2.31151 1.65013 2.8269 1.43917 3.39217C1.23155 3.9342 1.08661 4.55259 1.0471 5.45701C1.00423 6.36817 0.994324 6.65743 0.994324 8.9684C0.994324 11.2794 1.00423 11.5686 1.04375 12.4764C1.08327 13.3808 1.22833 14.0026 1.43595 14.5414C1.65013 15.1133 1.98287 15.6253 2.41123 16.0509C2.83304 16.4832 3.34379 16.8191 3.90396 17.0319C4.44109 17.2414 5.05391 17.3876 5.95029 17.4275C6.84977 17.4675 7.13655 17.4774 9.42667 17.4774C11.7168 17.4774 12.0034 17.4675 12.903 17.4275C13.7993 17.3876 14.4155 17.2414 14.9493 17.0319C16.0829 16.5896 16.9791 15.6852 17.4174 14.5414C17.6249 13.9994 17.7699 13.3808 17.8095 12.4764C17.849 11.5686 17.8589 11.2794 17.8589 8.9684C17.8589 6.65743 17.8555 6.36817 17.816 5.46038ZM16.297 12.4099C16.2607 13.2412 16.1224 13.6901 16.007 13.9894C15.7236 14.7309 15.1404 15.3194 14.4056 15.6054C14.109 15.7218 13.6609 15.8614 12.8404 15.8979C11.9507 15.9379 11.6838 15.9478 9.43323 15.9478C7.18263 15.9478 6.91245 15.9379 6.02598 15.8979C5.20219 15.8614 4.75735 15.7218 4.46079 15.6054C4.0951 15.469 3.76224 15.2529 3.49207 14.9703C3.21198 14.6943 2.9978 14.3617 2.86264 13.9927C2.74731 13.6935 2.60894 13.2412 2.57277 12.4133C2.53313 11.5155 2.52335 11.2461 2.52335 8.97502C2.52335 6.70393 2.53313 6.4313 2.57277 5.53689C2.60894 4.7056 2.74731 4.25671 2.86264 3.95745C2.9978 3.58831 3.21198 3.25255 3.49541 2.97978C3.76881 2.69714 4.09832 2.48101 4.46413 2.34476C4.7607 2.22838 5.20889 2.08875 6.02933 2.05212C6.91901 2.01224 7.18597 2.00224 9.43645 2.00224C11.6904 2.00224 11.9572 2.01224 12.8437 2.05212C13.6675 2.08875 14.1123 2.22838 14.4089 2.34476C14.7746 2.48101 15.1074 2.69714 15.3776 2.97978C15.6577 3.25579 15.8719 3.58831 16.007 3.95745C16.1224 4.25671 16.2607 4.70885 16.297 5.53689C16.3366 6.43467 16.3465 6.70393 16.3465 8.97502C16.3465 11.2461 16.3366 11.5121 16.297 12.4099Z" fill="white"/>
        <path d="M9.42955 4.5957C7.03735 4.5957 5.09644 6.55416 5.09644 8.96826C5.09644 11.3824 7.03735 13.3408 9.42955 13.3408C11.8219 13.3408 13.7627 11.3824 13.7627 8.96826C13.7627 6.55416 11.8219 4.5957 9.42955 4.5957ZM9.42955 11.8046C7.87761 11.8046 6.61877 10.5344 6.61877 8.96826C6.61877 7.40206 7.87761 6.13189 9.42955 6.13189C10.9816 6.13189 12.2403 7.40206 12.2403 8.96826C12.2403 10.5344 10.9816 11.8046 9.42955 11.8046Z" fill="white"/>
        <path d="M14.946 4.42313C14.946 4.98685 14.4931 5.44393 13.9343 5.44393C13.3757 5.44393 12.9227 4.98685 12.9227 4.42313C12.9227 3.85929 13.3757 3.40234 13.9343 3.40234C14.4931 3.40234 14.946 3.85929 14.946 4.42313Z" fill="white"/>
    </g>
    <defs>
        <clipPath id="clip0_304_15">
            <rect width="16.8678" height="17.0214" fill="white" transform="translate(0.964478 0.456055)"/>
        </clipPath>
    </defs>
</svg>
