<svg width="19" height="19" viewBox="0 0 19 19" fill="none" xmlns="http://www.w3.org/2000/svg">
    <g clip-path="url(#clip0_304_136)">
        <path fill-rule="evenodd" clip-rule="evenodd" d="M15.8476 10.9465C16.4436 11.5284 17.0727 12.0759 17.6072 12.7164C17.8433 13.0011 18.0669 13.2948 18.2379 13.6252C18.4802 14.0948 18.2607 14.6115 17.8397 14.6396L15.2222 14.6384C14.5471 14.6944 14.0085 14.4226 13.5557 13.9611C13.1933 13.5919 12.8577 13.1991 12.5092 12.8175C12.3664 12.6615 12.2169 12.5148 12.0382 12.3988C11.6809 12.1668 11.3707 12.2378 11.1666 12.6105C10.9586 12.9896 10.9114 13.4093 10.891 13.8317C10.863 14.4481 10.6766 14.6101 10.0575 14.6383C8.73438 14.7007 7.47865 14.5005 6.31211 13.8331C5.28366 13.2446 4.48613 12.4139 3.79198 11.4735C2.44044 9.64226 1.40543 7.63004 0.4752 5.56144C0.265813 5.09538 0.418942 4.8452 0.933171 4.83635C1.78707 4.81976 2.64085 4.82094 3.49575 4.83517C3.8428 4.84024 4.07255 5.0393 4.20656 5.36716C4.66854 6.50312 5.23383 7.58387 5.9434 8.58565C6.13236 8.85236 6.32504 9.11906 6.59942 9.30678C6.90296 9.51464 7.13408 9.44575 7.27687 9.10761C7.36749 8.89321 7.40716 8.66227 7.42758 8.43264C7.49523 7.64261 7.50415 6.85394 7.38549 6.06669C7.31265 5.57537 7.03591 5.2573 6.54564 5.16433C6.29547 5.11693 6.33272 5.02383 6.45385 4.88103C6.66424 4.63475 6.86211 4.48145 7.25657 4.48145H10.2147C10.6804 4.57336 10.7839 4.78257 10.8476 5.25116L10.8501 8.53707C10.8451 8.71847 10.9408 9.25678 11.2675 9.37686C11.529 9.46233 11.7014 9.25312 11.8583 9.0873C12.5666 8.33559 13.0721 7.44722 13.5236 6.52732C13.7241 6.12283 13.8964 5.70276 14.0634 5.28304C14.1871 4.97159 14.3813 4.81834 14.7321 4.82513L17.5791 4.82767C17.6636 4.82767 17.749 4.82891 17.8307 4.8429C18.3105 4.92466 18.442 5.13103 18.2938 5.59951C18.0603 6.33452 17.6061 6.94704 17.1619 7.56239C16.6871 8.21936 16.1793 8.85383 15.7085 9.5147C15.2759 10.1182 15.3103 10.4224 15.8476 10.9465Z" fill="white"/>
    </g>
    <defs>
        <clipPath id="clip0_304_136">
            <rect width="17.967" height="17.967" fill="white" transform="translate(0.384583 0.582031)"/>
        </clipPath>
    </defs>
</svg>